<svg width="18" height="15" viewBox="0 0 18 15" fill="none" xmlns="http://www.w3.org/2000/svg">
<path d="M1 14.4791C1.47754 14.4791 2.19385 13.4763 3.02954 13.333C3.50708 13.333 3.86523 14.3358 5.05908 14.4791C5.89478 14.4791 6.25293 13.4763 7.08862 13.4763C7.92432 13.4763 8.28247 14.4791 9.11816 14.4791C9.95386 14.4791 10.312 13.4763 11.1477 13.4763C11.9834 13.4763 12.3416 14.4791 13.1772 14.4791C14.0129 14.4791 14.3711 13.4763 15.2068 13.4763C16.0425 13.4763 16.4006 14.4791 17.2363 14.4791" stroke="black" stroke-width="0.338912" stroke-linecap="round" stroke-linejoin="round"/>
<path d="M2.6337 13.4805L2.08691 12.4347L16.1743 11.5273C15.0664 12.535 13.6434 13.3515 12.2036 14.0201" stroke="black" stroke-width="0.338912" stroke-linecap="round" stroke-linejoin="round"/>
<path d="M7.69531 2.69336C10.0926 3.42638 13.4449 6.96733 14.5862 10.7733C13.9606 10.5274 13.4926 10.2767 12.614 10.5011C11.7639 7.40906 10.243 4.45548 7.69531 2.69336Z" stroke="black" stroke-width="0.338912" stroke-linecap="round" stroke-linejoin="round"/>
<path d="M3.23699 1C6.30757 2.31323 10.5195 5.96879 11.2931 10.8373C7.75212 9.40946 5.05642 10.1711 3.17969 11.3292C6.04253 7.69032 4.75795 3.55245 3.23699 1Z" stroke="black" stroke-width="0.338912" stroke-linecap="round" stroke-linejoin="round"/>
</svg>
