<svg width="14" height="14" viewBox="0 0 14 14" fill="none" xmlns="http://www.w3.org/2000/svg">
<path d="M10.7295 13.9951C9.03092 14.1506 7.61947 12.165 6.53097 11.1602C5.98074 15.1195 0 14.7487 0 10.7296C0 9.04305 0 4.91634 0 3.27761C0 2.6915 0.155499 2.09342 0.466498 1.59104C1.04065 0.622162 2.15307 -0.0117951 3.27745 0.00016638C4.97598 0.00016638 9.07877 0.00016638 10.7295 0.00016638C14.7485 0.00016638 15.1313 5.98091 11.1601 6.51918L13.05 8.39713C15.1193 10.3469 13.5643 14.0788 10.7295 13.9951ZM9.82038 11.6267C10.9926 12.8348 12.8586 10.9688 11.6505 9.79662L8.385 6.53114H6.55489C6.55489 6.71056 6.55489 8.22967 6.55489 8.36124L9.3778 11.1842L9.82038 11.6267ZM1.98561 10.7177C1.96168 12.3923 4.60517 12.3923 4.56929 10.7177V3.26565C4.59321 2.42835 3.70806 1.77047 2.90664 2.02166C2.87076 2.03362 2.83487 2.04558 2.81095 2.05754C2.30857 2.24893 1.96168 2.75131 1.97365 3.28957V10.7177H1.98561ZM10.7295 4.55749C12.4041 4.58142 12.4041 1.94989 10.7295 1.97381H6.29174C6.62666 2.67954 6.54293 3.79196 6.55489 4.55749C6.79412 4.55749 10.6098 4.55749 10.7295 4.55749Z" fill="black"/>
</svg>
